# xmcd
# 
# Track frame offsets:
#     150
#     5121
#     16131
#     30396
#     52797
#     66995
#     77521
#     96779
#     110883
#     125409
#     148049
#     168593
#     189619
#     199766
#     221359
#     234932
#     246294
#     271719
#     285636
#     296840
# 
# Disc length: 4179
# 
# Revision: 9
# Processed by: cddbd v1.5.2PL0 Copyright (c) Steve Scherf et al.
# Submitted via: fre:ac v1.0.31
# 
DISCID=1e105114
DTITLE=Tom Waits - Orphans - Bawlers
DYEAR=0
DGENRE=Rock/Pop
TTITLE0=Bend Down The Branches
TTITLE1=You Can Never Hold Back Spring
TTITLE2=Long Way Home
TTITLE3=Widow's Grove
TTITLE4=Little Drop Of Poison
TTITLE5=Shiny Things
TTITLE6=World Keeps Turning
TTITLE7=Tell It To Me
TTITLE8=Never Let Go
TTITLE9=Fannin Street
TTITLE10=Little Man
TTITLE11=It's Over
TTITLE12=If I Have To Go
TTITLE13=Goodnight Irene
TTITLE14=The Fall Of Troy
TTITLE15=Take Care Of All My Children
TTITLE16=Down There By The Train
TTITLE17=Danny Says
TTITLE18=Jayne's Blue Wish
TTITLE19=Young At Heart
EXTD=
EXTT0=
EXTT1=
EXTT2=
EXTT3=
EXTT4=
EXTT5=
EXTT6=
EXTT7=
EXTT8=
EXTT9=
EXTT10=
EXTT11=
EXTT12=
EXTT13=
EXTT14=
EXTT15=
EXTT16=
EXTT17=
EXTT18=
EXTT19=
PLAYORDER=
